<svg width="512" height="512" viewBox="0 0 512 512" fill="none" xmlns="http://www.w3.org/2000/svg">
<path d="M512 208H408V421H512V208Z" fill="#FAFAFA"/>
<path d="M104 43H0L1.86211e-05 256H104V43Z" fill="#FAFAFA"/>
<path d="M0 0L256 75.786V181.195L0 105.409V0Z" fill="#FAFAFA"/>
<path d="M0 165L256 240.786V346.195L0 270.409V165Z" fill="#FAFAFA"/>
<path d="M0 330L256 405.786V511.195L0 435.409V330Z" fill="#FAFAFA"/>
<path d="M256 511.195L512 435.409V330L256 405.786V511.195Z" fill="#FAFAFA"/>
<path d="M256 346.195L512 270.409V165L256 240.786V346.195Z" fill="#FAFAFA"/>
<path d="M256 181.195L512 105.409V0L256 75.786V181.195Z" fill="#FAFAFA"/>
</svg>
