<?xml version="1.0" standalone="no"?>
<!DOCTYPE svg PUBLIC "-//W3C//DTD SVG 20010904//EN"
 "http://www.w3.org/TR/2001/REC-SVG-20010904/DTD/svg10.dtd">
<svg version="1.0" xmlns="http://www.w3.org/2000/svg"
 width="700.000000pt" height="700.000000pt" viewBox="0 0 700.000000 700.000000"
 preserveAspectRatio="xMidYMid meet">
<metadata>
Created by potrace 1.14, written by Peter Selinger 2001-2017
</metadata>
<g transform="translate(0.000000,700.000000) scale(0.100000,-0.100000)"
fill="#000000" stroke="none">
<path d="M0 5153 l0 -1850 248 -73 c136 -40 274 -81 307 -91 75 -23 298 -89
570 -169 116 -34 246 -72 290 -86 44 -13 127 -38 185 -55 58 -17 150 -44 205
-60 106 -32 119 -36 230 -68 39 -10 162 -47 275 -81 113 -34 219 -66 235 -70
35 -9 203 -59 320 -95 82 -25 393 -117 548 -162 l88 -26 77 23 c42 12 190 56
327 97 138 41 264 78 280 83 17 4 215 62 440 129 226 67 442 131 480 142 39
11 104 31 145 44 62 19 149 45 170 50 3 0 32 9 65 19 33 9 68 19 77 22 17 5
18 -19 15 -402 l-2 -408 -180 -53 c-194 -58 -303 -90 -600 -178 -203 -59 -305
-90 -440 -131 -47 -14 -91 -27 -97 -28 -7 -2 -44 -12 -83 -24 -38 -12 -206
-62 -372 -111 l-302 -89 -48 14 c-26 9 -100 30 -163 49 -234 69 -287 84 -390
114 -58 17 -141 42 -185 56 -116 35 -455 136 -490 145 -16 4 -115 33 -220 65
-163 48 -371 110 -710 210 -44 13 -163 48 -265 78 -102 31 -309 92 -460 136
-151 45 -311 92 -355 106 -44 14 -110 33 -148 44 l-67 18 2 -720 3 -721 180
-53 c270 -80 301 -89 414 -123 57 -18 111 -33 120 -35 9 -2 90 -26 181 -53 91
-28 215 -64 275 -82 61 -17 117 -34 125 -37 8 -3 20 -7 25 -8 17 -4 325 -95
425 -125 119 -37 670 -200 690 -205 24 -6 660 -193 725 -214 33 -10 94 -29
135 -41 41 -12 102 -31 136 -41 l60 -19 190 56 c104 31 225 67 269 79 44 13
127 38 185 55 58 18 119 36 135 40 17 5 122 36 235 70 113 34 214 64 225 67
11 3 110 32 220 64 110 33 270 80 355 105 85 25 198 59 250 75 52 15 194 58
315 93 121 36 297 88 390 116 94 28 177 53 185 55 8 2 56 15 105 30 119 36
183 55 220 65 17 4 73 21 125 37 l95 28 3 1848 c1 1016 -2 1847 -6 1847 -5 0
-22 -4 -38 -9 -44 -15 -943 -280 -1044 -309 -19 -6 -102 -30 -185 -55 -82 -25
-166 -50 -185 -55 -19 -6 -105 -31 -190 -57 -85 -26 -168 -50 -185 -55 -16 -4
-68 -19 -115 -33 -285 -85 -467 -139 -480 -142 -18 -4 -683 -202 -725 -216
-16 -5 -70 -21 -120 -35 -49 -15 -119 -35 -155 -46 -75 -22 -61 -24 -255 35
-134 40 -261 78 -275 82 -3 1 -25 7 -50 14 -25 7 -72 21 -105 31 -33 10 -199
60 -370 110 -170 50 -416 123 -545 161 -129 38 -266 79 -305 90 -38 11 -81 24
-95 29 -14 5 -53 16 -87 26 l-61 16 0 408 c-1 310 2 408 11 405 7 -2 98 -29
202 -60 105 -31 226 -67 270 -80 44 -13 143 -42 220 -65 77 -23 199 -59 270
-80 72 -21 270 -80 440 -130 171 -50 353 -104 405 -120 52 -16 133 -40 179
-53 l84 -24 76 23 c496 146 813 240 941 279 85 26 184 55 220 65 36 10 295 86
575 170 281 83 587 174 680 201 270 80 282 83 650 192 l350 104 3 722 c2 685
1 722 -15 717 -52 -16 -270 -82 -433 -130 -487 -144 -563 -167 -675 -199 -66
-20 -241 -71 -390 -115 -148 -44 -432 -128 -630 -187 -198 -58 -443 -131 -545
-162 -205 -61 -377 -112 -400 -118 -8 -2 -103 -30 -211 -62 l-196 -59 -59 17
c-33 9 -144 42 -248 73 -104 31 -241 72 -305 91 -64 18 -224 66 -356 105 -298
89 -531 157 -745 220 -91 27 -257 76 -370 110 -113 34 -225 67 -250 74 -151
43 -207 59 -220 64 -8 3 -19 6 -25 8 -5 1 -138 41 -295 87 -157 47 -301 90
-320 95 -19 6 -66 20 -105 32 -38 12 -92 27 -120 35 -27 7 -58 17 -67 20 -17
7 -18 -85 -18 -1842z"/>
</g>
</svg>
