<?xml version="1.0" standalone="no"?>
<!DOCTYPE svg PUBLIC "-//W3C//DTD SVG 20010904//EN"
 "http://www.w3.org/TR/2001/REC-SVG-20010904/DTD/svg10.dtd">
<svg version="1.0" xmlns="http://www.w3.org/2000/svg"
 width="700.000000pt" height="700.000000pt" viewBox="0 0 700.000000 700.000000"
 preserveAspectRatio="xMidYMid meet">
<metadata>
Created by potrace 1.14, written by Peter Selinger 2001-2017
</metadata>
<g transform="translate(0.000000,700.000000) scale(0.100000,-0.100000)"
fill="#000000" stroke="none">
<path d="M0 5152 l0 -1847 1749 -518 1749 -517 1030 305 c567 168 1035 305
1041 305 8 0 11 -121 11 -408 l0 -408 -1038 -307 -1039 -308 -1740 516 c-958
283 -1746 515 -1752 515 -17 0 -16 -1429 2 -1435 6 -2 793 -235 1748 -517
l1737 -514 1713 507 c943 279 1731 513 1752 519 l37 11 0 1845 0 1845 -22 -7
c-152 -48 -3463 -1024 -3475 -1024 -12 0 -1131 328 -2065 606 -17 5 -18 34
-18 415 0 386 1 410 18 405 162 -51 2050 -606 2060 -606 8 0 797 232 1754 515
956 283 1741 515 1744 515 2 0 4 322 4 715 0 492 -3 715 -10 715 -6 0 -793
-232 -1749 -514 l-1738 -515 -1739 515 c-956 283 -1745 516 -1751 519 -10 3
-13 -369 -13 -1843z"/>
</g>
</svg>
